<?xml version="1.0" encoding="UTF-8" standalone="no"?>
<!-- Created with Inkscape (http://www.inkscape.org/) -->

<svg
   width="210mm"
   height="297mm"
   viewBox="0 0 210 297"
   version="1.1"
   id="svg5"
   inkscape:version="1.1.2 (b8e25be833, 2022-02-05)"
   sodipodi:docname="logo.svg"
   xmlns:inkscape="http://www.inkscape.org/namespaces/inkscape"
   xmlns:sodipodi="http://sodipodi.sourceforge.net/DTD/sodipodi-0.dtd"
   xmlns="http://www.w3.org/2000/svg"
   xmlns:svg="http://www.w3.org/2000/svg">
  <sodipodi:namedview
     id="namedview7"
     pagecolor="#ffffff"
     bordercolor="#666666"
     borderopacity="1.0"
     inkscape:pageshadow="2"
     inkscape:pageopacity="0.0"
     inkscape:pagecheckerboard="0"
     inkscape:document-units="mm"
     showgrid="false"
     inkscape:zoom="1.3273709"
     inkscape:cx="736.7948"
     inkscape:cy="612.48893"
     inkscape:window-width="2880"
     inkscape:window-height="1526"
     inkscape:window-x="-2891"
     inkscape:window-y="-11"
     inkscape:window-maximized="1"
     inkscape:current-layer="g10" />
  <defs
     id="defs2" />
  <g
     inkscape:label="Layer 1"
     inkscape:groupmode="layer"
     id="layer1">
    <g
       id="g10"
       transform="matrix(0.03527778,0,0,-0.03527778,-31.726499,242.56351)">
      <path
         d="m 4537.6838,3213.2349 h -146.8876 v 47.6218 h 39.1958 v 177.4687 h -39.1958 v 47.6175 h 146.8876 v -47.6175 h -39.1957 v -177.4687 h 39.1957 v -47.6218"
         style="fill:#a6d71c;fill-opacity:1;fill-rule:nonzero;stroke:none;stroke-width:0.438628"
         id="path12" />
      <path
         d="m 4650.4857,3213.2349 v 220.6911 h -80.5891 v 52.0169 h 229.6699 v -52.0169 h -80.5847 v -220.6911 h -68.4961"
         style="fill:#a6d71c;fill-opacity:1;fill-rule:nonzero;stroke:none;stroke-width:0.438628"
         id="path14" />
      <path
         d="m 4919.518,3208.2916 c -20.8787,0 -39.2572,2.0133 -55.1268,6.0442 -15.7511,4.031 -30.4056,9.0314 -43.9592,15.0187 v 64.8335 h 6.2285 c 13.6764,-11.6017 28.7476,-20.5146 45.24,-26.7387 16.4793,-6.2285 32.4716,-9.3428 47.9815,-9.3428 3.9038,0 9.0314,0.4255 15.3871,1.2852 6.4653,0.8509 11.6543,2.1887 15.5669,4.0266 4.7635,2.0703 8.7901,4.9389 12.0885,8.6059 3.2941,3.7853 4.9434,8.7286 4.9434,14.8387 0,6.8338 -2.6888,12.3913 -8.0576,16.6679 -5.3776,4.2678 -11.7859,7.3821 -19.2294,9.3384 -9.2858,2.4387 -19.2339,4.7547 -29.853,6.961 -10.5052,2.1931 -20.3304,4.8775 -29.489,8.0576 -21.1243,7.4435 -36.2657,17.453 -45.4199,30.0328 -9.1585,12.5755 -13.7378,28.3266 -13.7378,47.2534 0,25.5149 10.8078,46.148 32.419,61.9035 21.6112,15.8739 48.5912,23.8043 80.9487,23.8087 16.238,0 32.3576,-1.6449 48.3543,-4.9433 16.1152,-3.2985 30.5197,-7.755 43.2224,-13.3694 v -62.272 h -6.0443 c -10.1367,8.6673 -22.5279,15.9924 -37.1781,21.9796 -14.5317,5.9785 -29.4889,8.97 -44.8716,8.9744 -5.9873,0 -11.3561,-0.4299 -16.1196,-1.2808 -4.7591,-0.8597 -9.7682,-2.509 -15.0142,-4.9477 -4.2766,-1.9563 -8.0049,-4.8864 -11.1762,-8.7901 -3.0529,-3.7898 -4.5749,-8.0576 -4.5749,-12.8211 0,-6.9567 2.4344,-12.5185 7.3251,-16.6635 5.0003,-4.031 14.5887,-7.6935 28.752,-10.992 9.1586,-2.0747 17.9487,-4.0924 26.3747,-6.0443 8.5445,-1.9563 17.6372,-4.6407 27.287,-8.0576 18.9224,-6.8382 32.9629,-16.0581 42.1258,-27.6555 9.277,-11.4788 13.9133,-26.6817 13.9177,-45.6041 0,-27.1072 -10.685,-48.8982 -32.0505,-65.3818 -21.2428,-16.4836 -49.9992,-24.7254 -86.2605,-24.7254"
         style="fill:#a6d71c;fill-opacity:1;fill-rule:nonzero;stroke:none;stroke-width:0.438628"
         id="path16" />
      <path
         d="m 3626.4612,3337.8358 c -0.5658,-131.0663 -116.3723,-242.2935 -249.2589,-243.5611 l 151.5283,-152.4845 c 1.6142,133.1279 117.368,244.0699 249.7195,244.0699 l -151.9889,151.9757"
         style="fill:#a6d71c;fill-opacity:1;fill-rule:nonzero;stroke:none;stroke-width:0.438628"
         id="path18" />
      <path
         d="m 3126.4301,3337.8358 c 0.5659,-131.0663 117.8856,-242.6926 250.7722,-243.9603 l -152.3266,-152.0853 c -1.6141,133.1279 -116.8153,244.2059 -249.1712,244.2059 l 150.7256,151.8397"
         style="fill:#a6d71c;fill-opacity:1;fill-rule:nonzero;stroke:none;stroke-width:0.438628"
         id="path20" />
      <path
         d="m 2978.6126,3489.7589 c 131.0663,0.5702 245.3902,119.0172 246.6579,251.9039 l 151.9318,-152.217 c -133.1322,-1.6141 -250.9959,-107.3629 -250.9959,-239.7188 l -147.5938,140.0319"
         style="fill:#a6d71c;fill-opacity:1;fill-rule:nonzero;stroke:none;stroke-width:0.438628"
         id="path22" />
      <path
         d="m 3529.2175,3741.79 c 0,-83.9709 -68.0662,-152.0415 -152.0371,-152.0415 -83.9665,0 -152.0371,68.0706 -152.0371,152.0415 0,83.9664 68.0706,152.0327 152.0415,152.0327 83.9665,0 152.0327,-68.0663 152.0327,-152.0327"
         style="fill:#a6d71c;fill-opacity:1;fill-rule:nonzero;stroke:none;stroke-width:0.438628"
         id="path24" />
      <path
         d="m 3528.8227,2942.2244 c 0,-83.9665 -68.0662,-152.0371 -152.0371,-152.0371 -83.9665,0 -152.0371,68.0706 -152.0371,152.0371 0,83.9665 68.0706,152.0371 152.0371,152.0371 83.9709,0 152.0371,-68.0706 152.0371,-152.0371"
         style="fill:#a6d71c;fill-opacity:1;fill-rule:nonzero;stroke:none;stroke-width:0.438628"
         id="path26" />
      <path
         d="m 3127.2679,3337.963 c 0,-83.9664 -68.0662,-152.0371 -152.0371,-152.0371 -83.9665,0 -152.0371,68.0707 -152.0371,152.0371 0,83.9709 68.0706,152.0372 152.0371,152.0372 83.9665,0 152.0371,-68.0663 152.0371,-152.0372"
         style="fill:#a6d71c;fill-opacity:1;fill-rule:nonzero;stroke:none;stroke-width:0.438628"
         id="path28" />
      <path
         d="m 3930.3776,3337.963 c 0,-83.9664 -68.0663,-152.0371 -152.0328,-152.0371 -83.9708,0 -152.0371,68.0707 -152.0371,152.0371 0,83.9709 68.0663,152.0372 152.0371,152.0372 83.9665,0 152.0328,-68.0663 152.0328,-152.0372"
         style="fill:#a6d71c;fill-opacity:1;fill-rule:nonzero;stroke:none;stroke-width:0.438628"
         id="path30" />
      <path
         d="m 3528.8798,3346.1785 c 0.5702,131.062 116.3766,242.2936 249.2633,243.5612 l -151.5283,152.4801 c -1.6186,-133.1235 -117.368,-244.0699 -249.7195,-244.0656 l 151.9845,-151.9757"
         style="fill:#40beaa;fill-opacity:1;fill-rule:nonzero;stroke:none;stroke-width:0.438628"
         id="path32" />
      <path
         d="m 4028.9153,3346.1785 c -0.5703,131.062 -117.89,242.6883 -250.7722,243.956 l 152.3222,152.0853 c 1.6141,-133.1235 116.8197,-244.2059 249.1712,-244.2059 l -150.7212,-151.8354"
         style="fill:#40beaa;fill-opacity:1;fill-rule:nonzero;stroke:none;stroke-width:0.438628"
         id="path34" />
      <path
         d="m 4176.7328,3194.2555 c -131.0707,-0.5702 -245.3903,-119.0172 -246.6623,-251.9083 l -151.9274,152.217 c 133.1278,1.6185 250.9915,107.3629 250.9959,239.7188 l 147.5938,-140.0275"
         style="fill:#40beaa;fill-opacity:1;fill-rule:nonzero;stroke:none;stroke-width:0.438628"
         id="path36" />
      <path
         d="m 3626.1235,2942.2244 c 0,83.9665 68.0706,152.0371 152.0371,152.0371 83.9709,0 152.0371,-68.0706 152.0371,-152.0371 0,-83.9665 -68.0662,-152.0371 -152.0371,-152.0371 -83.9665,0 -152.0371,68.0706 -152.0371,152.0371"
         style="fill:#40beaa;fill-opacity:1;fill-rule:nonzero;stroke:none;stroke-width:0.438628"
         id="path38" />
      <path
         d="m 3626.5183,3741.79 c 0,83.9664 68.0706,152.0327 152.0371,152.0327 83.9708,0 152.0371,-68.0663 152.0371,-152.0327 0,-83.9709 -68.0663,-152.0415 -152.0371,-152.0415 -83.9665,0 -152.0371,68.0706 -152.0371,152.0415"
         style="fill:#40beaa;fill-opacity:1;fill-rule:nonzero;stroke:none;stroke-width:0.438628"
         id="path40" />
      <path
         d="m 4028.0775,3346.047 c 0,83.9708 68.0662,152.0371 152.0371,152.0371 83.9665,0 152.0327,-68.0663 152.0327,-152.0371 0,-83.9665 -68.0662,-152.0372 -152.0327,-152.0372 -83.9709,0 -152.0371,68.0707 -152.0371,152.0372"
         style="fill:#40beaa;fill-opacity:1;fill-rule:nonzero;stroke:none;stroke-width:0.438628"
         id="path42" />
      <path
         d="m 3224.9634,3346.047 c 0,83.9708 68.0663,152.0371 152.0371,152.0371 83.9665,0 152.0372,-68.0663 152.0372,-152.0371 0,-83.9665 -68.0707,-152.0372 -152.0372,-152.0372 -83.9708,0 -152.0371,68.0707 -152.0371,152.0372"
         style="fill:#40beaa;fill-opacity:1;fill-rule:nonzero;stroke:none;stroke-width:0.438628"
         id="path44" />
      <path
         d="m 4209.7439,2916.5647 c 0,-5.9522 -0.9431,-11.6236 -2.8336,-17.0056 -1.8904,-5.3863 -4.6099,-9.8823 -8.1628,-13.4878 -2.1756,-2.2326 -4.5793,-4.2941 -7.2154,-6.1846 -2.5748,-1.8905 -5.439,-3.4959 -8.5884,-4.8118 -3.1537,-1.3159 -6.5882,-2.3466 -10.3077,-3.0923 -3.6669,-0.7457 -7.7944,-1.1141 -12.3693,-1.1141 h -16.8389 v -41.8363 h -32.1295 v 127.9126 h 49.6526 c 7.3909,0 13.7422,-0.6931 19.0716,-2.066 5.3819,-1.3159 10.2507,-3.4344 14.6063,-6.3557 4.8073,-3.2064 8.5313,-7.5049 11.163,-12.8869 2.6362,-5.3249 3.9521,-11.6806 3.9521,-19.0715 z m -32.9848,-0.772 c 0,3.6099 -0.8597,6.7023 -2.5791,9.277 -1.7151,2.6361 -3.7766,4.4389 -6.1847,5.4127 -3.0353,1.3158 -5.9566,2.0615 -8.7638,2.2326 -2.7458,0.2281 -6.5004,0.3421 -11.2508,0.3465 h -4.5529 v -38.3141 h 2.2326 c 3.0353,0 5.8995,0.026 8.5927,0.088 2.6888,0.057 5.0354,0.2544 7.0444,0.6009 1.715,0.2851 3.5221,0.829 5.4082,1.6317 1.9475,0.8597 3.4345,1.8028 4.4697,2.8335 2.1712,2.1186 3.6362,4.3205 4.3818,6.6145 0.7983,2.2897 1.1975,5.382 1.2019,9.277"
         style="fill:#40beaa;fill-opacity:1;fill-rule:evenodd;stroke:none;stroke-width:0.438628"
         id="path46" />
      <path
         d="m 4290.6663,2829.0322 h -68.8952 v 22.3349 h 18.3828 v 83.2427 h -18.3828 v 22.335 h 68.8952 v -22.335 h -18.3829 v -83.2427 h 18.3829 v -22.3349"
         style="fill:#40beaa;fill-opacity:1;fill-rule:nonzero;stroke:none;stroke-width:0.438628"
         id="path48" />
      <path
         d="m 4311.9704,2829.0322 v 127.9126 h 86.5018 v -24.4009 h -54.5434 v -22.4182 h 50.2492 v -24.3965 h -50.2492 v -32.3006 h 54.5434 v -24.3964 h -86.5018"
         style="fill:#40beaa;fill-opacity:1;fill-rule:nonzero;stroke:none;stroke-width:0.438628"
         id="path50" />
      <path
         d="m 4550.8646,2829.0322 h -31.954 v 84.7867 l -23.2824,-54.7232 h -21.9051 l -23.2779,54.7232 v -84.7867 h -30.239 v 127.9126 h 37.0245 l 28.3486,-63.1405 28.2607,63.1405 h 37.0246 v -127.9126"
         style="fill:#40beaa;fill-opacity:1;fill-rule:nonzero;stroke:none;stroke-width:0.438628"
         id="path52" />
      <path
         d="m 4693.8089,2892.9446 c 0,-20.6769 -5.5267,-36.9412 -16.5801,-48.7929 -11.0534,-11.8561 -26.1992,-17.782 -45.4418,-17.782 -19.304,0 -34.4454,5.9829 -45.4418,17.953 -10.9964,12.0272 -16.4924,28.2301 -16.4924,48.6219 0,20.5585 5.496,36.7921 16.4924,48.7096 10.9964,11.9658 26.1378,17.9487 45.4418,17.953 19.2426,0 34.3884,-5.9609 45.4418,-17.8697 11.0534,-11.8561 16.5758,-28.1204 16.5801,-48.7929 z m -33.1602,0.083 c 0,7.619 -0.8027,14.0844 -2.4037,19.4137 -1.5483,5.3864 -3.6362,9.7946 -6.2724,13.2334 -2.7458,3.4915 -5.8688,5.9829 -9.3647,7.4742 -3.4344,1.544 -7.0136,2.316 -10.7332,2.316 -3.952,0 -7.5356,-0.715 -10.742,-2.1449 -3.2063,-1.3773 -6.2987,-3.8687 -9.2726,-7.4742 -2.6405,-3.3248 -4.7898,-7.733 -6.4478,-13.229 -1.601,-5.496 -2.4037,-12.0579 -2.4037,-19.6725 0,-7.847 0.772,-14.3738 2.3204,-19.5847 1.544,-5.1539 3.6625,-9.4788 6.3557,-12.9746 2.7502,-3.5485 5.8688,-6.0969 9.3647,-7.6453 3.4915,-1.4869 7.1014,-2.2326 10.8253,-2.2326 3.781,0 7.4435,0.8027 10.992,2.4037 3.5485,1.6624 6.6145,4.2108 9.1937,7.6496 2.7502,3.7196 4.8687,8.0445 6.3557,12.9703 1.4869,4.9828 2.2326,11.4788 2.2326,19.4969"
         style="fill:#40beaa;fill-opacity:1;fill-rule:evenodd;stroke:none;stroke-width:0.438628"
         id="path54" />
      <path
         d="m 4822.4058,2829.0322 h -30.9232 l -49.3106,89.1686 v -89.1686 h -29.3792 v 127.9126 h 39.4326 l 40.8011,-73.2772 v 73.2772 h 29.3793 v -127.9126"
         style="fill:#40beaa;fill-opacity:1;fill-rule:nonzero;stroke:none;stroke-width:0.438628"
         id="path56" />
      <path
         d="m 4872.9182,2829.0322 v 103.5117 h -37.7966 v 24.4009 h 107.7182 v -24.4009 h -37.7966 v -103.5117 h -32.125"
         style="fill:#40beaa;fill-opacity:1;fill-rule:nonzero;stroke:none;stroke-width:0.438628"
         id="path58" />
      <path
         d="m 4956.0732,2829.0322 v 127.9126 h 86.5017 v -24.4009 h -54.5477 v -22.4182 h 50.2536 v -24.3965 h -50.2536 v -32.3006 h 54.5477 v -24.3964 h -86.5017"
         style="fill:#40beaa;fill-opacity:1;fill-rule:nonzero;stroke:none;stroke-width:0.438628"
         id="path60" />
      <path
         d="m 4213.6082,3031.0334 c 0,-6.3601 -1.2018,-11.9439 -3.6055,-16.7556 -2.4037,-4.8074 -5.6452,-8.7901 -9.7069,-11.9351 -4.8117,-3.7853 -10.1103,-6.4741 -15.8914,-8.0795 -5.7285,-1.6054 -13.0317,-2.4037 -21.9051,-2.4037 h -51.201 v 127.9082 h 45.1874 c 9.391,0 16.488,-0.3728 21.3042,-1.1185 4.8643,-0.6842 9.4173,-2.1756 13.6588,-4.4652 4.5793,-2.4651 7.983,-5.7548 10.22,-9.8779 2.2897,-4.1231 3.4345,-8.8778 3.4389,-14.2598 0,-6.246 -1.5747,-11.7991 -4.724,-16.6634 -3.0924,-4.8732 -7.3909,-8.4524 -12.8869,-10.7376 v -0.6887 c 7.9041,-1.6624 14.2291,-5.0705 18.9838,-10.2244 4.7503,-5.0969 7.1277,-11.9965 7.1277,-20.6988 z m -41.1433,52.5695 c 0,2.0615 -0.5483,4.1801 -1.6361,6.3557 -1.0307,2.1756 -2.658,3.7503 -4.895,4.724 -2.1186,0.9167 -4.6363,1.4036 -7.5576,1.465 -2.8642,0.1097 -7.1584,0.1667 -12.8869,0.1711 h -2.2326 v -27.0633 h 4.0354 c 5.5004,0 9.334,0.057 11.514,0.1754 2.2326,0.1097 4.5222,0.715 6.8689,1.8028 2.5791,1.2018 4.3511,2.8598 5.3293,4.9828 0.9694,2.1186 1.4562,4.5793 1.4606,7.3865 z m 8.0752,-51.973 c 0,3.952 -0.8071,7.0444 -2.4081,9.277 -1.6054,2.237 -4.0091,3.9257 -7.2154,5.0705 -1.9475,0.7413 -4.6407,1.1404 -8.0752,1.2018 -3.3818,0.1141 -7.9304,0.1711 -13.6588,0.1755 h -5.9259 v -32.0418 h 1.7194 c 8.3559,0 14.1414,0.053 17.3521,0.1711 3.202,0.1097 6.4698,0.886 9.7902,2.316 2.9213,1.2632 5.0398,3.0923 6.3601,5.5004 1.3729,2.4607 2.0616,5.2372 2.0616,8.3295"
         style="fill:#40beaa;fill-opacity:1;fill-rule:evenodd;stroke:none;stroke-width:0.438628"
         id="path62" />
      <path
         d="m 4295.7324,2991.8595 h -68.8908 v 22.3349 h 18.3829 v 83.2384 h -18.3829 v 22.3349 h 68.8908 v -22.3349 h -18.3828 v -83.2384 h 18.3828 v -22.3349"
         style="fill:#40beaa;fill-opacity:1;fill-rule:nonzero;stroke:none;stroke-width:0.438628"
         id="path64" />
      <path
         d="m 4433.5229,3055.772 c 0,-20.6769 -5.5267,-36.9369 -16.5801,-48.793 -11.0534,-11.8561 -26.1992,-17.7819 -45.4418,-17.7819 -19.2996,0 -34.4454,5.9828 -45.4418,17.953 -10.9964,12.0272 -16.4924,28.2301 -16.4924,48.6219 0,20.5541 5.496,36.792 16.4924,48.7052 10.9964,11.9701 26.1422,17.953 45.4418,17.953 19.2426,0 34.3884,-5.9566 45.4418,-17.8653 11.0534,-11.8561 16.5757,-28.1204 16.5801,-48.7929 z m -33.1602,0.083 c 0,7.619 -0.7983,14.0887 -2.4037,19.4137 -1.544,5.3819 -3.6362,9.7901 -6.2724,13.229 -2.7458,3.4958 -5.8688,5.9872 -9.3647,7.4742 -3.4344,1.5483 -7.0136,2.3203 -10.7376,2.3203 -3.9476,0 -7.5312,-0.7149 -10.7376,-2.1449 -3.2064,-1.3773 -6.2987,-3.8687 -9.277,-7.4742 -2.6361,-3.3248 -4.781,-7.733 -6.4434,-13.229 -1.6054,-5.5004 -2.4037,-12.0579 -2.4037,-19.6724 0,-7.8471 0.772,-14.3783 2.3204,-19.5848 1.5439,-5.1538 3.6625,-9.4831 6.3557,-12.9746 2.7502,-3.5529 5.8688,-6.0969 9.3647,-7.6452 3.4915,-1.487 7.1014,-2.2327 10.8209,-2.2327 3.781,0 7.4479,0.7983 10.9964,2.4081 3.5485,1.658 6.6145,4.2021 9.1936,7.6453 2.7502,3.7195 4.8688,8.0444 6.3558,12.9702 1.4869,4.9784 2.2326,11.4789 2.2326,19.497"
         style="fill:#40beaa;fill-opacity:1;fill-rule:evenodd;stroke:none;stroke-width:0.438628"
         id="path66" />
      <path
         d="m 4477.0743,2991.8595 v 103.5118 h -37.7966 v 24.3964 h 107.7226 v -24.3964 h -37.7966 v -103.5118 h -32.1294"
         style="fill:#40beaa;fill-opacity:1;fill-rule:nonzero;stroke:none;stroke-width:0.438628"
         id="path68" />
      <path
         d="m 4560.2293,2991.8595 v 127.9082 h 86.5061 v -24.3964 h -54.5477 v -22.4183 h 50.2536 v -24.4009 h -50.2536 v -32.2961 h 54.5477 v -24.3965 h -86.5061"
         style="fill:#40beaa;fill-opacity:1;fill-rule:nonzero;stroke:none;stroke-width:0.438628"
         id="path70" />
      <path
         d="m 4723.6181,2989.3681 c -19.1856,0 -34.4191,5.7811 -45.7006,17.3521 -11.2859,11.6237 -16.9223,27.945 -16.9223,48.964 0,20.2734 5.6364,36.4237 16.9223,48.4508 11.3385,12.0842 26.6027,18.1241 45.7839,18.1241 5.0969,0 9.6805,-0.2851 13.7466,-0.8597 4.0661,-0.5746 7.9611,-1.3729 11.6851,-2.4037 2.9168,-0.8597 6.0969,-2.0352 9.5313,-3.5221 3.4389,-1.4914 6.211,-2.7809 8.334,-3.8687 v -30.4934 h -3.2634 c -1.544,1.3729 -3.4959,3.009 -5.8426,4.8994 -2.3466,1.9432 -5.0135,3.8337 -7.9874,5.6671 -2.9826,1.8291 -6.2723,3.3775 -9.8779,4.6407 -3.5528,1.3159 -7.2768,1.9738 -11.1718,1.9738 -4.6363,0 -8.9041,-0.7456 -12.7992,-2.2326 -3.8379,-1.4343 -7.5005,-3.952 -10.992,-7.5619 -3.2107,-3.2634 -5.8425,-7.6716 -7.904,-13.229 -2.0046,-5.5531 -3.009,-12.1106 -3.009,-19.6681 0,-7.9655 1.0615,-14.6633 3.18,-20.1067 2.1186,-5.382 4.8951,-9.7331 8.334,-13.0536 3.3204,-3.2063 7.0136,-5.5267 11.0797,-6.9566 4.1231,-1.4343 8.2155,-2.1493 12.2859,-2.1493 4.2328,0 8.2726,0.6887 12.1106,2.0616 3.8379,1.4299 7.0706,3.0046 9.7068,4.724 2.8642,1.7764 5.3819,3.5792 7.5575,5.4127 2.18,1.8334 4.0661,3.4607 5.6715,4.8951 h 2.9213 v -30.0636 c -2.3511,-1.0922 -5.0662,-2.351 -8.1629,-3.781 -3.0923,-1.3729 -6.268,-2.5528 -9.5314,-3.5221 -4.0134,-1.2019 -7.7593,-2.1186 -11.2552,-2.7502 -3.4958,-0.6273 -8.3032,-0.9431 -14.4308,-0.9431"
         style="fill:#40beaa;fill-opacity:1;fill-rule:nonzero;stroke:none;stroke-width:0.438628"
         id="path72" />
      <path
         d="m 4895.5075,2991.8595 h -30.9233 l -49.3061,89.1643 v -89.1643 h -29.3793 v 127.9082 h 39.4283 l 40.8055,-73.2727 v 73.2727 h 29.3749 v -127.9082"
         style="fill:#40beaa;fill-opacity:1;fill-rule:nonzero;stroke:none;stroke-width:0.438628"
         id="path74" />
      <path
         d="m 5037.9386,3055.772 c 0,-20.6769 -5.5311,-36.9369 -16.5845,-48.793 -11.049,-11.8561 -26.1992,-17.7819 -45.4374,-17.7819 -19.2996,0 -34.4498,5.9828 -45.4462,17.953 -10.992,12.0272 -16.4924,28.2301 -16.4924,48.6219 0,20.5541 5.5004,36.792 16.4924,48.7052 10.9964,11.9701 26.1466,17.953 45.4462,17.953 19.2382,0 34.3884,-5.9566 45.4374,-17.8653 11.0534,-11.8561 16.5802,-28.1204 16.5845,-48.7929 z m -33.1602,0.083 c 0,7.619 -0.8027,14.0887 -2.4037,19.4137 -1.5483,5.3819 -3.6406,9.7901 -6.2724,13.229 -2.7502,3.4958 -5.8732,5.9872 -9.3647,7.4742 -3.4344,1.5483 -7.018,2.3203 -10.7376,2.3203 -3.952,0 -7.5312,-0.7149 -10.7376,-2.1449 -3.2063,-1.3773 -6.2987,-3.8687 -9.2769,-7.4742 -2.6362,-3.3248 -4.7855,-7.733 -6.4435,-13.229 -1.601,-5.5004 -2.4037,-12.0579 -2.4037,-19.6724 0,-7.8471 0.772,-14.3783 2.3204,-19.5848 1.5439,-5.1538 3.6625,-9.4831 6.3557,-12.9746 2.7502,-3.5529 5.8688,-6.0969 9.3603,-7.6452 3.4959,-1.487 7.1014,-2.2327 10.8253,-2.2327 3.781,0 7.4479,0.7983 10.9964,2.4081 3.5485,1.658 6.6101,4.2021 9.1893,7.6453 2.7502,3.7195 4.8687,8.0444 6.3601,12.9702 1.4869,4.9784 2.2282,11.4789 2.2326,19.497"
         style="fill:#40beaa;fill-opacity:1;fill-rule:evenodd;stroke:none;stroke-width:0.438628"
         id="path76" />
      <path
         d="m 5142.3101,2991.8595 h -85.3877 v 127.9082 h 32.1251 V 3016.256 h 53.2626 v -24.3965"
         style="fill:#40beaa;fill-opacity:1;fill-rule:nonzero;stroke:none;stroke-width:0.438628"
         id="path78" />
      <path
         d="m 5274.0826,3055.772 c 0,-20.6769 -5.5223,-36.9369 -16.5757,-48.793 -11.0578,-11.8561 -26.1993,-17.7819 -45.4419,-17.7819 -19.304,0 -34.4498,5.9828 -45.4462,17.953 -10.9964,12.0272 -16.4924,28.2301 -16.4924,48.6219 0,20.5541 5.496,36.792 16.4924,48.7052 10.9964,11.9701 26.1422,17.953 45.4462,17.953 19.2426,0 34.3841,-5.9566 45.4419,-17.8653 11.0534,-11.8561 16.5757,-28.1204 16.5757,-48.7929 z m -33.1559,0.083 c 0,7.619 -0.8026,14.0887 -2.4036,19.4137 -1.5484,5.3819 -3.6406,9.7901 -6.2724,13.229 -2.7502,3.4958 -5.8732,5.9872 -9.3647,7.4742 -3.4345,1.5483 -7.0137,2.3203 -10.7376,2.3203 -3.9521,0 -7.5313,-0.7149 -10.7376,-2.1449 -3.2108,-1.3773 -6.2987,-3.8687 -9.277,-7.4742 -2.6362,-3.3248 -4.781,-7.733 -6.4434,-13.229 -1.6054,-5.5004 -2.4037,-12.0579 -2.4037,-19.6724 0,-7.8471 0.772,-14.3783 2.3203,-19.5848 1.544,-5.1538 3.6582,-9.4831 6.3557,-12.9746 2.7458,-3.5529 5.8645,-6.0969 9.3647,-7.6452 3.4915,-1.487 7.097,-2.2327 10.821,-2.2327 3.781,0 7.4435,0.7983 10.9964,2.4081 3.5485,1.658 6.6101,4.2021 9.1892,7.6453 2.7502,3.7195 4.8688,8.0444 6.3601,12.9702 1.487,4.9784 2.2326,11.4789 2.2326,19.497"
         style="fill:#40beaa;fill-opacity:1;fill-rule:evenodd;stroke:none;stroke-width:0.438628"
         id="path80" />
      <path
         d="m 5399.9336,2999.1627 c -5.61,-2.2984 -12.9175,-4.5267 -21.905,-6.7023 -8.9349,-2.1755 -17.7557,-3.2633 -26.458,-3.2633 -20.1023,0 -36.1386,5.7811 -48.1043,17.3521 -11.9175,11.6236 -17.8697,28.0853 -17.8697,49.3938 0,20.0409 5.9522,36.1035 17.8697,48.192 11.9657,12.0842 28.3134,18.1241 49.0473,18.1241 10.7069,0 19.4137,-1.0307 26.1159,-3.0923 6.7022,-2.0045 13.6325,-4.7547 20.7866,-8.2462 v -29.9802 h -2.9213 c -1.544,1.2019 -3.7766,2.8906 -6.6978,5.0705 -2.8643,2.2283 -5.6715,4.1231 -8.4173,5.6671 -3.2108,1.8291 -6.9303,3.4082 -11.1675,4.724 -4.1845,1.3159 -8.6234,1.9739 -13.3167,1.9739 -5.496,0 -10.5095,-0.8554 -15.0318,-2.5748 -4.5266,-1.715 -8.5664,-4.3556 -12.1149,-7.9041 -3.3774,-3.4344 -6.0706,-7.79 -8.0751,-13.0579 -1.9475,-5.2679 -2.9213,-11.3955 -2.9213,-18.3785 0,-14.9484 3.7547,-25.9755 11.2552,-33.0725 7.5006,-7.1058 17.7513,-10.6543 30.7522,-10.6543 1.1448,0 2.4914,0.026 4.0398,0.088 1.5439,0.053 2.8905,0.1404 4.0353,0.2544 v 25.0852 h -24.8219 v 23.9666 h 55.9206 v -62.965"
         style="fill:#40beaa;fill-opacity:1;fill-rule:nonzero;stroke:none;stroke-width:0.438628"
         id="path82" />
      <path
         d="m 5487.9004,2991.8595 h -68.8952 v 22.3349 h 18.3829 v 83.2384 h -18.3829 v 22.3349 h 68.8952 v -22.3349 h -18.3873 v -83.2384 h 18.3873 v -22.3349"
         style="fill:#40beaa;fill-opacity:1;fill-rule:nonzero;stroke:none;stroke-width:0.438628"
         id="path84" />
      <path
         d="m 5509.2002,2991.8595 v 127.9082 h 86.5061 v -24.3964 h -54.5477 v -22.4183 h 50.2535 v -24.4009 h -50.2535 v -32.2961 h 54.5477 v -24.3965 h -86.5061"
         style="fill:#40beaa;fill-opacity:1;fill-rule:nonzero;stroke:none;stroke-width:0.438628"
         id="path86" />
    </g>
  </g>
</svg>
